<svg width="30" height="23" viewBox="0 0 30 23" fill="none" xmlns="http://www.w3.org/2000/svg">
<path fill-rule="evenodd" clip-rule="evenodd" d="M22.8571 16.5691C21.2114 19.1495 18.3236 20.8608 15.0361 20.8608C11.7135 20.8608 8.79919 19.1127 7.16276 16.486L14.9385 12.8765L22.8571 16.5691ZM23.9028 14.303L17.8978 11.5028L23.8577 8.73628C24.1486 9.63563 24.3057 10.5951 24.3057 11.5913C24.3057 12.5348 24.1647 13.4453 23.9028 14.303ZM24.8098 17.4796L28.6296 19.2608L29.6842 16.999L25.8575 15.2145C26.2384 14.0762 26.4448 12.8578 26.4448 11.5913C26.4448 10.2734 26.2214 9.00765 25.8102 7.82994L29.6938 6.02723L28.643 3.76364L24.7335 5.57842C22.7208 2.33923 19.1303 0.182617 15.0361 0.182617C10.9198 0.182617 7.31255 2.3627 5.30614 5.63127L1.24989 3.73979L0.195121 6.00164L4.24174 7.88863C3.84358 9.04966 3.62747 10.2952 3.62747 11.5913C3.62747 12.822 3.82235 14.0073 4.18295 15.1178L0.185547 16.9734L1.23631 19.237L5.21029 17.3923C7.19629 20.749 10.8533 23 15.0361 23C19.1826 23 22.8124 20.788 24.8098 17.4796ZM6.1413 14.2088L11.9816 11.4978L6.19449 8.79921C5.9165 9.68033 5.76659 10.6183 5.76659 11.5913C5.76659 12.5003 5.89743 13.3787 6.1413 14.2088ZM7.26076 6.54273L14.941 10.1241L22.7753 6.48743C21.1167 3.97749 18.2698 2.32174 15.0361 2.32174C11.7788 2.32174 8.91394 4.00184 7.26076 6.54273Z" fill="white" fill-opacity="0.5"/>
</svg>
