<svg width="30" height="17" viewBox="0 0 30 17" fill="none" xmlns="http://www.w3.org/2000/svg">
<path d="M17.2988 8.24118C17.2988 9.42259 16.341 10.3803 15.1596 10.3803C13.9782 10.3803 13.0205 9.42259 13.0205 8.24118C13.0205 7.05977 13.9782 6.10205 15.1596 6.10205C16.341 6.10205 17.2988 7.05977 17.2988 8.24118Z" fill="white" fill-opacity="0.5"/>
<path fill-rule="evenodd" clip-rule="evenodd" d="M3.01514 0L0.921387 0.438228L4.30808 16.6191H26.011L29.3977 0.438228L27.304 0L27.1224 0.867645C26.2632 0.532916 25.1077 0.219261 23.8942 0.219261C22.6433 0.219261 21.9644 0.545335 21.3759 0.827988L21.3471 0.841816C20.8516 1.07965 20.4102 1.28882 19.4377 1.28882C18.4644 1.28882 18.0248 1.07884 17.5634 0.84814L17.4957 0.814175C16.9528 0.541711 16.3103 0.219261 15.1594 0.219261C13.9959 0.219261 13.2332 0.546136 12.5954 0.81954L12.58 0.826109C11.9732 1.08618 11.4909 1.28882 10.7029 1.28882C9.86706 1.28882 9.43833 1.14591 8.9415 0.980294L8.93474 0.978042C8.36489 0.788091 7.72415 0.575782 6.60289 0.575782C5.47362 0.575782 4.19559 0.798688 3.22884 1.02098L3.01514 0ZM3.5941 2.76614L6.04583 14.48H24.2733L26.7511 2.64167C26.0558 2.3408 24.9868 2.00187 23.8942 2.00187C23.0487 2.00187 22.6576 2.18978 22.1582 2.42977L22.1185 2.44888C21.4998 2.74582 20.7825 3.07143 19.4377 3.07143C18.0935 3.07143 17.3744 2.74663 16.7662 2.44255L16.6996 2.40918C16.2242 2.1707 15.8876 2.00187 15.1594 2.00187C14.3714 2.00187 13.8891 2.20451 13.2822 2.46458L13.2669 2.47115C12.6291 2.74456 11.8664 3.07143 10.7029 3.07143C9.58163 3.07143 8.94089 2.85912 8.37103 2.66917L8.36428 2.66692C7.86745 2.5013 7.43872 2.35839 6.60289 2.35839C5.62815 2.35839 4.46969 2.56328 3.5941 2.76614Z" fill="white" fill-opacity="0.5"/>
</svg>
