<svg width="29" height="19" viewBox="0 0 29 19" fill="none" xmlns="http://www.w3.org/2000/svg">
<path d="M16.1207 13.1671C16.1207 14.1516 15.3226 14.9497 14.3381 14.9497C13.3536 14.9497 12.5555 14.1516 12.5555 13.1671C12.5555 12.1826 13.3536 11.3845 14.3381 11.3845C15.3226 11.3845 16.1207 12.1826 16.1207 13.1671Z" fill="white" fill-opacity="0.5"/>
<path fill-rule="evenodd" clip-rule="evenodd" d="M6.13826 3.00631H23.0681L23.8604 7.46269H6.67277C4.03697 7.46269 2.4948 9.52979 1.64421 11.6291C0.777577 13.7679 0.464772 16.2913 0.433803 17.9636L0.416992 18.8714H28.066L27.8664 17.7936L27.8695 17.793L24.8605 0.867188H6.13826V3.00631ZM24.1773 9.2453L25.5717 17.0888H2.25925C2.36688 15.6396 2.67605 13.8294 3.29635 12.2985C4.0709 10.3869 5.17293 9.2453 6.67277 9.2453H24.1773Z" fill="white" fill-opacity="0.5"/>
</svg>
