<svg width="22" height="26" viewBox="0 0 22 26" fill="none" xmlns="http://www.w3.org/2000/svg">
<path fill-rule="evenodd" clip-rule="evenodd" d="M20.072 2.35682H2.24599V20.1829H20.072V2.35682ZM0.463379 0.574219V21.9655H21.8547V0.574219H0.463379Z" fill="white" fill-opacity="0.5"/>
<path fill-rule="evenodd" clip-rule="evenodd" d="M11.159 18.4004C15.097 18.4004 18.2894 15.208 18.2894 11.27C18.2894 7.33194 15.097 4.13954 11.159 4.13954C7.22098 4.13954 4.02858 7.33194 4.02858 11.27C4.02858 15.208 7.22098 18.4004 11.159 18.4004ZM11.159 20.183C16.0815 20.183 20.072 16.1925 20.072 11.27C20.072 6.34743 16.0815 2.35693 11.159 2.35693C6.23647 2.35693 2.24597 6.34743 2.24597 11.27C2.24597 16.1925 6.23647 20.183 11.159 20.183Z" fill="white" fill-opacity="0.5"/>
<path d="M0.463379 23.748H21.8547V25.5307H0.463379V23.748Z" fill="white" fill-opacity="0.5"/>
</svg>
