<svg width="19" height="16" viewBox="0 0 19 16" fill="none" xmlns="http://www.w3.org/2000/svg">
  <path d="M6.8738 13.5227C7.16306 13.8106 7.30769 14.1515 7.30769 14.5455C7.30769 14.9394 7.16306 15.2803 6.8738 15.5682C6.58454 15.8561 6.24199 16 5.84615 16C5.45032 16 5.10777 15.8561 4.81851 15.5682C4.52925 15.2803 4.38461 14.9394 4.38461 14.5455C4.38461 14.1515 4.52925 13.8106 4.81851 13.5227C5.10777 13.2348 5.45032 13.0909 5.84615 13.0909C6.24199 13.0909 6.58454 13.2348 6.8738 13.5227ZM17.1046 13.5227C17.3938 13.8106 17.5385 14.1515 17.5385 14.5455C17.5385 14.9394 17.3938 15.2803 17.1046 15.5682C16.8153 15.8561 16.4728 16 16.0769 16C15.6811 16 15.3385 15.8561 15.0493 15.5682C14.76 15.2803 14.6154 14.9394 14.6154 14.5455C14.6154 14.1515 14.76 13.8106 15.0493 13.5227C15.3385 13.2348 15.6811 13.0909 16.0769 13.0909C16.4728 13.0909 16.8153 13.2348 17.1046 13.5227ZM19 2.18182V8C19 8.18182 18.9353 8.3447 18.8059 8.48864C18.6841 8.625 18.5319 8.70455 18.3492 8.72727L6.42849 10.1136C6.52744 10.5682 6.57692 10.8333 6.57692 10.9091C6.57692 11.0303 6.48558 11.2727 6.30288 11.6364H16.8077C17.0056 11.6364 17.1769 11.7083 17.3215 11.8523C17.4661 11.9962 17.5385 12.1667 17.5385 12.3636C17.5385 12.5606 17.4661 12.7311 17.3215 12.875C17.1769 13.0189 17.0056 13.0909 16.8077 13.0909H5.11538C4.91747 13.0909 4.74619 13.0189 4.60156 12.875C4.45693 12.7311 4.38461 12.5606 4.38461 12.3636C4.38461 12.2803 4.41506 12.1629 4.47596 12.0114C4.53686 11.8523 4.59776 11.7159 4.65865 11.6023C4.71955 11.4811 4.79948 11.3295 4.89844 11.1477C5.00501 10.9583 5.06591 10.8447 5.08113 10.8068L3.0601 1.45455H0.730769C0.532853 1.45455 0.361578 1.38258 0.216947 1.23864C0.0723157 1.0947 0 0.924243 0 0.727274C0 0.530303 0.0723157 0.359849 0.216947 0.21591C0.361578 0.0719699 0.532853 0 0.730769 0H3.65385C3.77564 0 3.88221 0.0265152 3.97356 0.0795455C4.07252 0.125 4.14864 0.181819 4.20192 0.250001C4.25521 0.318182 4.30469 0.412879 4.35036 0.534092C4.39603 0.647728 4.42648 0.746212 4.44171 0.829546C4.45693 0.905303 4.47596 1.01515 4.4988 1.15909C4.52925 1.30303 4.54828 1.40152 4.55589 1.45455H18.2692C18.4671 1.45455 18.6384 1.52652 18.7831 1.67045C18.9277 1.81439 19 1.98485 19 2.18182Z" fill="white"/>
</svg>
