<svg width="245" height="200" viewBox="0 0 245 200" fill="none" xmlns="http://www.w3.org/2000/svg">
    <path opacity="0.4" d="M216.141 112.95H208.927V178.237V170.983H216.141C223.795 170.983 231.135 167.926 236.548 162.484C241.96 157.043 245 149.662 245 141.966C245 134.271 241.96 126.89 236.548 121.449C231.135 116.007 223.795 112.95 216.141 112.95ZM216.141 156.475H208.927V127.458H216.141C219.968 127.458 223.638 128.987 226.344 131.707C229.05 134.428 230.571 138.119 230.571 141.966C230.571 145.814 229.05 149.505 226.344 152.225C223.638 154.946 219.968 156.475 216.141 156.475Z" fill="#463D6D"/>
    <path d="M208.927 178.237C208.927 184.009 206.647 189.545 202.588 193.626C198.529 197.707 193.023 200 187.283 200H143.995C138.255 200 132.749 197.707 128.69 193.626C124.631 189.545 122.351 184.009 122.351 178.237V118.363C122.353 117.65 122.494 116.945 122.767 116.287C123.04 115.63 123.439 115.032 123.942 114.53C124.444 114.027 125.04 113.629 125.696 113.358C126.351 113.087 127.053 112.948 127.762 112.95H208.927V178.237Z" fill="#463D6D"/>
    <path opacity="0.4" d="M3.14367 34.441C1.79797 35.1233 0.774562 36.3122 0.295979 37.7491C-0.182605 39.186 -0.077663 40.7548 0.587985 42.1144L20.9022 82.9796C21.5807 84.3327 22.7631 85.3617 24.1922 85.8429C25.6213 86.3242 27.1816 86.2186 28.5337 85.5493L34.6816 82.5228L9.25958 31.4073L3.14367 34.441ZM166.069 5.5498C164.573 7.20587 162.995 8.78536 161.341 10.2823C148.53 21.8781 131.571 28.2666 113.585 28.2666C95.5993 28.2666 78.6536 21.8781 65.8397 10.2823C64.1859 8.78536 62.6079 7.20587 61.1117 5.5498L19.4362 26.3215L44.883 77.5012L48.6278 75.6632C49.494 75.2394 50.4531 75.0442 51.415 75.0958C52.3769 75.1473 53.3099 75.4441 54.1263 75.958C54.9427 76.472 55.6157 77.1863 56.082 78.0337C56.5483 78.8812 56.7926 79.834 56.7918 80.8025V171.313C56.7918 174.342 57.9885 177.247 60.1187 179.389C62.2488 181.53 65.138 182.734 68.1504 182.734H159.019C162.032 182.734 164.921 181.53 167.051 179.389C169.181 177.247 170.378 174.342 170.378 171.313V80.7669C170.377 79.7983 170.621 78.8455 171.088 77.9981C171.554 77.1506 172.227 76.4363 173.044 75.9223C173.86 75.4084 174.793 75.1116 175.755 75.0601C176.717 75.0085 177.676 75.2037 178.542 75.6275L182.294 77.4762L207.716 26.3036L166.069 5.5498ZM224.037 34.4588L217.889 31.3931L192.474 82.4978L198.593 85.5136H198.615C199.963 86.188 201.523 86.2961 202.951 85.8142C204.379 85.3323 205.558 84.2998 206.229 82.9439L226.561 42.1144C226.897 41.4443 227.098 40.7141 227.153 39.9656C227.209 39.2172 227.116 38.4651 226.882 37.7524C226.648 37.0397 226.277 36.3805 225.789 35.8123C225.302 35.2441 224.707 34.7781 224.04 34.441L224.037 34.4588Z" fill="#463D6D"/>
    <path d="M113.586 16.8458C95.1669 16.8458 79.3713 9.92187 72.2367 0L61.1123 5.54982C62.6086 7.20589 64.1866 8.78538 65.8404 10.2823C78.6543 21.8781 95.6141 28.2666 113.586 28.2666C131.557 28.2666 148.524 21.8781 161.338 10.2823C162.992 8.78538 164.57 7.20589 166.066 5.54982L154.942 0C147.807 9.92187 132.011 16.8458 113.586 16.8458ZM9.26025 31.4074L34.6823 82.5228L44.8837 77.5012L19.4369 26.3215L9.26025 31.4074ZM207.717 26.3037L182.273 77.4762L192.475 82.4978L217.893 31.3752L207.717 26.3037Z" fill="#463D6D"/>
</svg>
